<svg  viewBox="0 0 560 560" fill="none" xmlns="http://www.w3.org/2000/svg">
<g filter="url(#filter0_ddi)">
<path fill-rule="evenodd" clip-rule="evenodd" d="M177.75 30C167.395 30 159 38.3947 159 48.75V153L48.75 153C38.3947 153 30 161.395 30 171.75C30 182.105 38.3947 190.5 48.75 190.5H159V359H48.75C38.3947 359 30 367.395 30 377.75C30 388.105 38.3947 396.5 48.75 396.5H159V511.25C159 521.605 167.395 530 177.75 530C188.105 530 196.5 521.605 196.5 511.25V396.5L364 396.5V511.25C364 521.605 372.395 530 382.75 530C393.105 530 401.5 521.605 401.5 511.25V396.5H511.25C521.605 396.5 530 388.105 530 377.75C530 367.395 521.605 359 511.25 359H401.5V190.5H511.25C521.605 190.5 530 182.105 530 171.75C530 161.395 521.605 153 511.25 153L401.5 153V48.75C401.5 38.3947 393.105 30 382.75 30C372.395 30 364 38.3947 364 48.75V153L196.5 153V48.75C196.5 38.3947 188.105 30 177.75 30ZM364 359V190.5L196.5 190.5V359L364 359Z" fill="#F1F3F6"/>
</g>
<defs>
<filter id="filter0_ddi" x="0" y="0" width="560" height="560" filterUnits="userSpaceOnUse" color-interpolation-filters="sRGB">
<feFlood flood-opacity="0" result="BackgroundImageFix"/>
<feColorMatrix in="SourceAlpha" type="matrix" values="0 0 0 0 0 0 0 0 0 0 0 0 0 0 0 0 0 0 127 0"/>
<feOffset dx="10" dy="10"/>
<feGaussianBlur stdDeviation="10"/>
<feColorMatrix type="matrix" values="0 0 0 0 0.215686 0 0 0 0 0.329412 0 0 0 0 0.666667 0 0 0 0.1 0"/>
<feBlend mode="normal" in2="BackgroundImageFix" result="effect1_dropShadow"/>
<feColorMatrix in="SourceAlpha" type="matrix" values="0 0 0 0 0 0 0 0 0 0 0 0 0 0 0 0 0 0 127 0"/>
<feOffset dx="-10" dy="-10"/>
<feGaussianBlur stdDeviation="10"/>
<feColorMatrix type="matrix" values="0 0 0 0 1 0 0 0 0 1 0 0 0 0 1 0 0 0 0.25 0"/>
<feBlend mode="normal" in2="effect1_dropShadow" result="effect2_dropShadow"/>
<feBlend mode="normal" in="SourceGraphic" in2="effect2_dropShadow" result="shape"/>
<feColorMatrix in="SourceAlpha" type="matrix" values="0 0 0 0 0 0 0 0 0 0 0 0 0 0 0 0 0 0 127 0" result="hardAlpha"/>
<feOffset dx="4" dy="4"/>
<feGaussianBlur stdDeviation="4"/>
<feComposite in2="hardAlpha" operator="arithmetic" k2="-1" k3="1"/>
<feColorMatrix type="matrix" values="0 0 0 0 1 0 0 0 0 1 0 0 0 0 1 0 0 0 0.5 0"/>
<feBlend mode="normal" in2="shape" result="effect3_innerShadow"/>
</filter>
</defs>
</svg>
