<svg  viewBox="0 0 212 212" fill="none" xmlns="http://www.w3.org/2000/svg">
<g filter="url(#filter0_ddi)">
<path fill-rule="evenodd" clip-rule="evenodd" d="M34.3934 37.3415C28.5355 43.1994 28.5355 52.6969 34.3934 58.5547L81.5505 105.712L34.6897 152.573C28.8319 158.431 28.8319 167.928 34.6897 173.786L37.6379 176.734C43.4958 182.592 52.9932 182.592 58.8511 176.734L105.712 129.873L152.573 176.734C158.43 182.592 167.928 182.592 173.786 176.734L176.734 173.786C182.592 167.928 182.592 158.431 176.734 152.573L129.873 105.712L177.03 58.5548C182.888 52.6969 182.888 43.1995 177.03 37.3416L174.082 34.3934C168.224 28.5356 158.727 28.5356 152.869 34.3934L105.712 81.5505L58.5548 34.3934C52.6969 28.5355 43.1994 28.5355 37.3416 34.3934L34.3934 37.3415Z" fill="#F1F3F6"/>
</g>
<defs>
<filter id="filter0_ddi" x="0" y="0" width="211.424" height="211.127" filterUnits="userSpaceOnUse" color-interpolation-filters="sRGB">
<feFlood flood-opacity="0" result="BackgroundImageFix"/>
<feColorMatrix in="SourceAlpha" type="matrix" values="0 0 0 0 0 0 0 0 0 0 0 0 0 0 0 0 0 0 127 0"/>
<feOffset dx="-10" dy="-10"/>
<feGaussianBlur stdDeviation="10"/>
<feColorMatrix type="matrix" values="0 0 0 0 1 0 0 0 0 1 0 0 0 0 1 0 0 0 0.8 0"/>
<feBlend mode="normal" in2="BackgroundImageFix" result="effect1_dropShadow"/>
<feColorMatrix in="SourceAlpha" type="matrix" values="0 0 0 0 0 0 0 0 0 0 0 0 0 0 0 0 0 0 127 0"/>
<feOffset dx="10" dy="10"/>
<feGaussianBlur stdDeviation="10"/>
<feColorMatrix type="matrix" values="0 0 0 0 0.215686 0 0 0 0 0.329412 0 0 0 0 0.666667 0 0 0 0.2 0"/>
<feBlend mode="normal" in2="effect1_dropShadow" result="effect2_dropShadow"/>
<feBlend mode="normal" in="SourceGraphic" in2="effect2_dropShadow" result="shape"/>
<feColorMatrix in="SourceAlpha" type="matrix" values="0 0 0 0 0 0 0 0 0 0 0 0 0 0 0 0 0 0 127 0" result="hardAlpha"/>
<feOffset dx="4" dy="4"/>
<feGaussianBlur stdDeviation="4"/>
<feComposite in2="hardAlpha" operator="arithmetic" k2="-1" k3="1"/>
<feColorMatrix type="matrix" values="0 0 0 0 1 0 0 0 0 1 0 0 0 0 1 0 0 0 0.5 0"/>
<feBlend mode="normal" in2="shape" result="effect3_innerShadow"/>
</filter>
</defs>
</svg>
